<svg xmlns="http://www.w3.org/2000/svg" xmlns:xlink="http://www.w3.org/1999/xlink" viewBox="0 0 204 204"><defs><style>.cls-1{fill:none;stroke:#699;stroke-miterlimit:10;stroke-width:7px;}.cls-2{clip-path:url(#clip-path);}</style><clipPath id="clip-path"><circle class="cls-1" cx="102" cy="102" r="98.5"/></clipPath></defs><title>donate</title><g id="Layer_2" data-name="Layer 2"><g id="Desktop"><g id="body"><g id="Home_Page" data-name="Home Page"><g id="Content"><g id="Volunteer"><g id="Layer_46" data-name="Layer 46"><g class="cls-2"><path class="cls-1" d="M119.07,107.65c6.24-.11,12,1.71,17.46,4.49,12.2,6.14,23.55,13.7,35.14,20.87.33.2.65.43,1,.63,4.39,2.67,4.38,2.66,2,7.42a68.4,68.4,0,0,1-8.07,13.37c-3,3.68-4.2,3.91-8.27,1.46-5.07-3.05-10.13-6.13-15.14-9.29-10.16-6.4-20.82-5.91-31.72-2.45a97.19,97.19,0,0,1-22.81,4.76c-5,.34-9.7-.29-14-3.26a188.4,188.4,0,0,0-21.05-12.09A38.65,38.65,0,0,1,38.67,120.8c-2.26-3.36-4.95-6.42-7.43-9.62a17.27,17.27,0,0,1-3.24-5.9c-1-3.55,1-5.68,4.64-4.86a23.27,23.27,0,0,1,12.45,7.35c4.1,4.56,7.51,9.8,12.83,13.17l.39.25c1.92,1.18,4.1,1.9,6,2.93,1.77.95,1.66,3.77,3.08,5.46,1.79,2.13,3.94,3.41,6.72,3,7.77-1.2,15.55-2.43,23.09-4.76a26.53,26.53,0,0,0,3.24-1.31c.63-.29,1.37-.66,1.19-1.52s-1.06-.77-1.73-.76a66.79,66.79,0,0,0-10.42,1.34c-4.22.73-8.42,1.59-12.63,2.35a20.62,20.62,0,0,1-3,.27c-1.82.06-3.51-.36-4.29-2.19a4.91,4.91,0,0,1,.82-5.27,9.44,9.44,0,0,1,5.25-3.34c14.2-3.06,27.91-8.33,42.5-9.68C118.45,107.67,118.76,107.66,119.07,107.65Z"/><path class="cls-1" d="M97.59,93.61c-3.84-5.94-9.4-10.21-14.39-15a41.62,41.62,0,0,1-7.26-8.35c-2.26-3.78-2.25-7.15,0-10.17,2.73-3.64,6.64-5.1,10.79-4a21.43,21.43,0,0,1,9.62,6c.94,1,1.45.77,2.26,0a23.54,23.54,0,0,1,8.57-5.6c3.72-1.3,7.15-.91,10.16,1.81,3.3,3,4,6.57,2,10.54s-5.12,7-8.2,10.07-6.32,6.17-9.37,9.37C100.29,89.94,99,91.83,97.59,93.61Z"/></g><circle class="cls-1" cx="102" cy="102" r="98.5"/></g></g></g></g></g></g></g></svg>