<svg xmlns="http://www.w3.org/2000/svg" xmlns:xlink="http://www.w3.org/1999/xlink" viewBox="0 0 204 204"><defs><style>.cls-1{fill:none;stroke:#699;stroke-miterlimit:10;stroke-width:7px;}.cls-2{clip-path:url(#clip-path);}</style><clipPath id="clip-path"><circle class="cls-1" cx="102" cy="102" r="98.5"/></clipPath></defs><title>gift_1</title><g id="Layer_2" data-name="Layer 2"><g id="Desktop"><g id="body"><g id="Home_Page" data-name="Home Page"><g id="Content"><g id="Volunteer"><g id="Layer_46" data-name="Layer 46"><g class="cls-2"><path class="cls-1" d="M71,127.07c0-6.48,0-13,0-19.45,0-.83.27-1.14,1.81-1.13q13.95.07,27.89,0c1.42,0,1.75.24,1.74,1.06q-.06,19.5,0,39c0,.76-.3,1-1.62,1q-14-.05-28.08,0c-1.39,0-1.76-.2-1.75-1C71.06,140,71,133.55,71,127.07Z"/><path class="cls-1" d="M102,127.06c0-6.48,0-13,0-19.45,0-.84.3-1.13,1.82-1.12q13.95.07,27.89,0c1.43,0,1.74.25,1.73,1.06q-.06,19.5,0,39c0,.77-.32,1-1.63,1q-14-.05-28.08,0c-1.41,0-1.74-.21-1.74-1C102,140,102,133.55,102,127.06Z"/><path class="cls-1" d="M83.58,80.21c5.76,0,11.52,0,17.28,0,1.17,0,1.6.24,1.59,1.52q-.09,11.52,0,23c0,1.16-.23,1.59-1.51,1.59q-17.28-.08-34.56,0c-1.19,0-1.57-.27-1.56-1.52q.09-11.52,0-23c0-1.37.45-1.6,1.68-1.58C72.19,80.24,77.89,80.21,83.58,80.21Z"/><path class="cls-1" d="M120.33,106.3c-5.64,0-11.27,0-16.91,0-1.39,0-1.9-.26-1.88-1.79.09-7.56.07-15.11,0-22.67,0-1.24.24-1.7,1.6-1.69q17.28.08,34.56,0c1.1,0,1.48.22,1.47,1.41q-.09,11.61,0,23.23c0,1.28-.42,1.51-1.58,1.5C131.85,106.27,126.09,106.3,120.33,106.3Z"/><path class="cls-1" d="M93.81,78.39a66.42,66.42,0,0,1-13.35-1.05c-4.68-.85-7.82-5.58-7.9-9.61a10.48,10.48,0,0,1,19.31-6.48c3.57,5.06,6.09,10.68,8.64,16.29.34.76,0,.86-.63.86C97.86,78.37,95.84,78.39,93.81,78.39Z"/><path class="cls-1" d="M103.48,78.36c3.09-6.65,5.71-13.28,10.36-18.76,3.72-4.39,11.15-4.08,15.29.49,4.71,5.19,2.9,14.18-3.37,16.66a23.61,23.61,0,0,1-6.34,1.32A131.5,131.5,0,0,1,103.48,78.36Z"/></g><circle class="cls-1" cx="102" cy="102" r="98.5"/></g></g></g></g></g></g></g></svg>