<?xml version="1.0" encoding="utf-8"?>
<!-- Generator: Adobe Illustrator 21.0.2, SVG Export Plug-In . SVG Version: 6.00 Build 0)  -->
<svg version="1.1" id="Layer_1" xmlns="http://www.w3.org/2000/svg" xmlns:xlink="http://www.w3.org/1999/xlink" x="0px" y="0px"
	 viewBox="0 0 423 70" style="enable-background:new 0 0 423 70;" xml:space="preserve">
<style type="text/css">
	.st0{fill:#FFFFFF;}
	.st1{enable-background:new    ;}
</style>
<title>logo-black</title>
<g id="Layer_2">
	<g id="logo1">
		<circle cx="35" cy="35" r="35"/>
		<rect x="22.8" y="52.1" class="st0" width="24.4" height="2.4"/>
		<polygon class="st0" points="48.3,34.7 35,29.3 21.7,34.7 21.1,33.2 35,27.6 48.9,33.2 		"/>
		<rect x="24.1" y="22.8" class="st0" width="1.6" height="24.4"/>
		<rect x="44.3" y="22.8" class="st0" width="1.6" height="24.4"/>
		<g class="st1">
			<path d="M94.5,27.5v15.2h-2.8V36h-7.1v6.6h-2.8V27.5h2.8V34h7.1v-6.5H94.5z"/>
			<path d="M112.4,35c0,1.1-0.2,2.1-0.6,3.1c-0.4,0.9-0.9,1.8-1.6,2.5s-1.5,1.2-2.4,1.6c-0.9,0.4-2,0.6-3.1,0.6
				c-1.1,0-2.2-0.2-3.1-0.6c-0.9-0.4-1.8-0.9-2.4-1.6c-0.7-0.7-1.2-1.5-1.6-2.5c-0.4-0.9-0.6-2-0.6-3.1c0-1.1,0.2-2.1,0.6-3.1
				c0.4-0.9,0.9-1.8,1.6-2.5c0.7-0.7,1.5-1.2,2.4-1.6c0.9-0.4,2-0.6,3.1-0.6c0.8,0,1.5,0.1,2.2,0.3c0.7,0.2,1.3,0.4,1.9,0.8
				s1.1,0.7,1.5,1.2s0.8,1,1.1,1.6c0.3,0.6,0.6,1.2,0.7,1.9C112.3,33.6,112.4,34.3,112.4,35z M109.5,35c0-0.8-0.1-1.6-0.3-2.2
				c-0.2-0.7-0.5-1.2-1-1.7c-0.4-0.5-0.9-0.8-1.5-1.1c-0.6-0.2-1.3-0.4-2-0.4c-0.7,0-1.4,0.1-2,0.4c-0.6,0.2-1.1,0.6-1.5,1.1
				s-0.7,1-1,1.7c-0.2,0.7-0.3,1.4-0.3,2.2s0.1,1.6,0.3,2.2c0.2,0.7,0.5,1.2,1,1.7c0.4,0.5,0.9,0.8,1.5,1.1c0.6,0.2,1.3,0.4,2,0.4
				c0.7,0,1.4-0.1,2-0.4c0.6-0.2,1.1-0.6,1.5-1.1c0.4-0.5,0.7-1,1-1.7C109.4,36.6,109.5,35.9,109.5,35z"/>
			<path d="M131.3,27.5v15.2h-2.5v-9.8c0-0.4,0-0.8,0.1-1.3l-4.6,8.6c-0.2,0.4-0.5,0.6-1,0.6h-0.4c-0.4,0-0.8-0.2-1-0.6l-4.6-8.7
				c0,0.2,0,0.5,0.1,0.7c0,0.2,0,0.4,0,0.6v9.8h-2.5V27.5h2.1c0.1,0,0.2,0,0.3,0c0.1,0,0.2,0,0.2,0.1c0.1,0,0.1,0.1,0.2,0.1
				c0.1,0.1,0.1,0.1,0.2,0.3l4.5,8.4c0.1,0.2,0.2,0.5,0.3,0.7c0.1,0.2,0.2,0.5,0.3,0.7c0.1-0.3,0.2-0.5,0.3-0.8
				c0.1-0.2,0.2-0.5,0.3-0.7l4.5-8.4c0.1-0.1,0.1-0.2,0.2-0.3c0.1-0.1,0.1-0.1,0.2-0.1c0.1,0,0.2,0,0.2-0.1c0.1,0,0.2,0,0.3,0H131.3
				z"/>
			<path d="M137.5,29.7v4.2h5.3v2.2h-5.3v4.3h6.7v2.3h-9.6V27.5h9.6v2.2H137.5z"/>
			<path d="M155.7,40.3v2.3h-8.9V27.5h2.8v12.9H155.7z"/>
			<path d="M160.5,29.7v4.2h5.3v2.2h-5.3v4.3h6.7v2.3h-9.6V27.5h9.6v2.2H160.5z"/>
			<path d="M177.8,30.2c-0.1,0.1-0.2,0.3-0.3,0.3c-0.1,0.1-0.2,0.1-0.4,0.1c-0.1,0-0.3-0.1-0.5-0.2s-0.4-0.2-0.6-0.4
				s-0.5-0.3-0.8-0.4c-0.3-0.1-0.7-0.2-1.1-0.2c-0.4,0-0.7,0-1,0.1c-0.3,0.1-0.5,0.2-0.7,0.4c-0.2,0.2-0.3,0.4-0.4,0.6
				c-0.1,0.2-0.1,0.5-0.1,0.8c0,0.4,0.1,0.7,0.3,0.9c0.2,0.2,0.5,0.4,0.8,0.6s0.7,0.3,1.1,0.5s0.9,0.3,1.3,0.4
				c0.4,0.2,0.9,0.3,1.3,0.5s0.8,0.5,1.1,0.8c0.3,0.3,0.6,0.7,0.8,1.1c0.2,0.4,0.3,1,0.3,1.6c0,0.7-0.1,1.3-0.4,1.9
				c-0.2,0.6-0.6,1.1-1,1.6c-0.5,0.4-1,0.8-1.7,1.1c-0.7,0.3-1.4,0.4-2.2,0.4c-0.5,0-1,0-1.4-0.1c-0.5-0.1-0.9-0.2-1.3-0.4
				c-0.4-0.2-0.8-0.4-1.2-0.6c-0.4-0.2-0.7-0.5-1-0.8l0.8-1.4c0.1-0.1,0.2-0.2,0.3-0.2c0.1-0.1,0.2-0.1,0.4-0.1
				c0.2,0,0.4,0.1,0.6,0.2s0.4,0.3,0.7,0.5s0.6,0.3,1,0.5s0.8,0.2,1.3,0.2c0.8,0,1.4-0.2,1.9-0.6c0.4-0.4,0.7-0.9,0.7-1.6
				c0-0.4-0.1-0.7-0.3-1c-0.2-0.3-0.5-0.5-0.8-0.6c-0.3-0.2-0.7-0.3-1.1-0.4s-0.8-0.2-1.3-0.4c-0.4-0.1-0.9-0.3-1.3-0.5
				c-0.4-0.2-0.8-0.5-1.1-0.8c-0.3-0.3-0.6-0.7-0.8-1.2c-0.2-0.5-0.3-1.1-0.3-1.7c0-0.6,0.1-1.1,0.3-1.6c0.2-0.5,0.5-1,1-1.4
				s0.9-0.7,1.6-1c0.6-0.2,1.3-0.4,2.1-0.4c0.9,0,1.7,0.1,2.5,0.4c0.8,0.3,1.4,0.7,1.9,1.2L177.8,30.2z"/>
			<path d="M189.3,30.2c-0.1,0.1-0.2,0.3-0.3,0.3c-0.1,0.1-0.2,0.1-0.4,0.1c-0.1,0-0.3-0.1-0.5-0.2s-0.4-0.2-0.6-0.4
				s-0.5-0.3-0.8-0.4c-0.3-0.1-0.7-0.2-1.1-0.2c-0.4,0-0.7,0-1,0.1c-0.3,0.1-0.5,0.2-0.7,0.4c-0.2,0.2-0.3,0.4-0.4,0.6
				c-0.1,0.2-0.1,0.5-0.1,0.8c0,0.4,0.1,0.7,0.3,0.9c0.2,0.2,0.5,0.4,0.8,0.6s0.7,0.3,1.1,0.5s0.9,0.3,1.3,0.4
				c0.4,0.2,0.9,0.3,1.3,0.5s0.8,0.5,1.1,0.8c0.3,0.3,0.6,0.7,0.8,1.1c0.2,0.4,0.3,1,0.3,1.6c0,0.7-0.1,1.3-0.4,1.9
				c-0.2,0.6-0.6,1.1-1,1.6c-0.5,0.4-1,0.8-1.7,1.1c-0.7,0.3-1.4,0.4-2.2,0.4c-0.5,0-1,0-1.4-0.1c-0.5-0.1-0.9-0.2-1.3-0.4
				c-0.4-0.2-0.8-0.4-1.2-0.6c-0.4-0.2-0.7-0.5-1-0.8l0.8-1.4c0.1-0.1,0.2-0.2,0.3-0.2c0.1-0.1,0.2-0.1,0.4-0.1
				c0.2,0,0.4,0.1,0.6,0.2s0.4,0.3,0.7,0.5s0.6,0.3,1,0.5s0.8,0.2,1.3,0.2c0.8,0,1.4-0.2,1.9-0.6c0.4-0.4,0.7-0.9,0.7-1.6
				c0-0.4-0.1-0.7-0.3-1c-0.2-0.3-0.5-0.5-0.8-0.6c-0.3-0.2-0.7-0.3-1.1-0.4s-0.8-0.2-1.3-0.4c-0.4-0.1-0.9-0.3-1.3-0.5
				c-0.4-0.2-0.8-0.5-1.1-0.8c-0.3-0.3-0.6-0.7-0.8-1.2c-0.2-0.5-0.3-1.1-0.3-1.7c0-0.6,0.1-1.1,0.3-1.6c0.2-0.5,0.5-1,1-1.4
				s0.9-0.7,1.6-1c0.6-0.2,1.3-0.4,2.1-0.4c0.9,0,1.7,0.1,2.5,0.4c0.8,0.3,1.4,0.7,1.9,1.2L189.3,30.2z"/>
			<path d="M210.7,27.5v15.2h-2.8V36h-7.1v6.6h-2.8V27.5h2.8V34h7.1v-6.5H210.7z"/>
			<path d="M220.2,40.4c0.5,0,1-0.1,1.5-0.3c0.4-0.2,0.8-0.4,1.1-0.8c0.3-0.3,0.5-0.7,0.7-1.2c0.2-0.5,0.2-1,0.2-1.6v-9.1h2.8v9.1
				c0,0.9-0.1,1.7-0.4,2.5s-0.7,1.4-1.2,2c-0.5,0.6-1.2,1-2,1.3c-0.8,0.3-1.7,0.5-2.6,0.5c-1,0-1.9-0.2-2.6-0.5
				c-0.8-0.3-1.4-0.7-2-1.3s-1-1.2-1.2-2c-0.3-0.8-0.4-1.6-0.4-2.5v-9.1h2.8v9.1c0,0.6,0.1,1.1,0.2,1.6c0.2,0.5,0.4,0.9,0.7,1.2
				c0.3,0.3,0.7,0.6,1.1,0.8C219.1,40.3,219.6,40.4,220.2,40.4z"/>
			<path d="M246.1,27.5v15.2h-2.5v-9.8c0-0.4,0-0.8,0.1-1.3l-4.6,8.6c-0.2,0.4-0.6,0.6-1,0.6h-0.4c-0.4,0-0.8-0.2-1-0.6l-4.6-8.7
				c0,0.2,0,0.5,0.1,0.7c0,0.2,0,0.4,0,0.6v9.8h-2.5V27.5h2.1c0.1,0,0.2,0,0.3,0c0.1,0,0.2,0,0.2,0.1c0.1,0,0.1,0.1,0.2,0.1
				c0.1,0.1,0.1,0.1,0.2,0.3l4.5,8.4c0.1,0.2,0.2,0.5,0.3,0.7c0.1,0.2,0.2,0.5,0.3,0.7c0.1-0.3,0.2-0.5,0.3-0.8
				c0.1-0.2,0.2-0.5,0.3-0.7l4.5-8.4c0.1-0.1,0.1-0.2,0.2-0.3c0.1-0.1,0.1-0.1,0.2-0.1c0.1,0,0.2,0,0.2-0.1c0.1,0,0.2,0,0.3,0H246.1
				z"/>
			<path d="M262.5,42.6h-2.2c-0.2,0-0.4-0.1-0.6-0.2c-0.2-0.1-0.3-0.3-0.3-0.5l-1.1-3.1H252l-1.1,3.1c-0.1,0.2-0.2,0.3-0.3,0.4
				c-0.2,0.1-0.4,0.2-0.6,0.2h-2.2l6-15.2h2.9L262.5,42.6z M257.5,36.9l-1.8-5c-0.1-0.2-0.2-0.5-0.3-0.8c-0.1-0.3-0.2-0.6-0.3-1
				c-0.1,0.4-0.2,0.7-0.3,1c-0.1,0.3-0.2,0.6-0.3,0.8l-1.8,5H257.5z"/>
			<path d="M276.9,27.5v15.2h-1.4c-0.2,0-0.4,0-0.6-0.1s-0.3-0.2-0.4-0.4L266.5,32c0,0.5,0.1,0.9,0.1,1.3v9.3h-2.5V27.5h1.5
				c0.1,0,0.2,0,0.3,0c0.1,0,0.2,0,0.2,0.1c0.1,0,0.1,0.1,0.2,0.1c0.1,0.1,0.1,0.1,0.2,0.2l8,10.2c0-0.2,0-0.5-0.1-0.7s0-0.5,0-0.7
				v-9.2H276.9z"/>
			<path d="M288.3,30.2c-0.1,0.1-0.2,0.3-0.3,0.3c-0.1,0.1-0.2,0.1-0.4,0.1c-0.1,0-0.3-0.1-0.5-0.2s-0.4-0.2-0.6-0.4
				s-0.5-0.3-0.8-0.4s-0.7-0.2-1.1-0.2c-0.4,0-0.7,0-1,0.1c-0.3,0.1-0.5,0.2-0.7,0.4c-0.2,0.2-0.3,0.4-0.4,0.6s-0.1,0.5-0.1,0.8
				c0,0.4,0.1,0.7,0.3,0.9s0.5,0.4,0.8,0.6c0.3,0.2,0.7,0.3,1.1,0.5s0.9,0.3,1.3,0.4c0.4,0.2,0.9,0.3,1.3,0.5s0.8,0.5,1.1,0.8
				c0.3,0.3,0.6,0.7,0.8,1.1c0.2,0.4,0.3,1,0.3,1.6c0,0.7-0.1,1.3-0.4,1.9c-0.2,0.6-0.6,1.1-1,1.6c-0.5,0.4-1,0.8-1.7,1.1
				c-0.7,0.3-1.4,0.4-2.2,0.4c-0.5,0-1,0-1.4-0.1s-0.9-0.2-1.3-0.4c-0.4-0.2-0.8-0.4-1.2-0.6c-0.4-0.2-0.7-0.5-1-0.8l0.8-1.4
				c0.1-0.1,0.2-0.2,0.3-0.2c0.1-0.1,0.2-0.1,0.4-0.1c0.2,0,0.4,0.1,0.6,0.2s0.4,0.3,0.7,0.5s0.6,0.3,1,0.5c0.4,0.1,0.8,0.2,1.3,0.2
				c0.8,0,1.4-0.2,1.9-0.6c0.4-0.4,0.7-0.9,0.7-1.6c0-0.4-0.1-0.7-0.3-1c-0.2-0.3-0.5-0.5-0.8-0.6c-0.3-0.2-0.7-0.3-1.1-0.4
				s-0.8-0.2-1.3-0.4c-0.4-0.1-0.9-0.3-1.3-0.5c-0.4-0.2-0.8-0.5-1.1-0.8c-0.3-0.3-0.6-0.7-0.8-1.2c-0.2-0.5-0.3-1.1-0.3-1.7
				c0-0.6,0.1-1.1,0.3-1.6c0.2-0.5,0.5-1,1-1.4s0.9-0.7,1.6-1c0.6-0.2,1.3-0.4,2.1-0.4c0.9,0,1.7,0.1,2.5,0.4
				c0.8,0.3,1.4,0.7,1.9,1.2L288.3,30.2z"/>
			<path d="M311.4,35c0,1.1-0.2,2.1-0.6,3.1s-0.9,1.8-1.6,2.5s-1.5,1.2-2.4,1.6c-0.9,0.4-2,0.6-3.1,0.6c-1.1,0-2.2-0.2-3.1-0.6
				c-0.9-0.4-1.8-0.9-2.4-1.6s-1.2-1.5-1.6-2.5s-0.6-2-0.6-3.1c0-1.1,0.2-2.1,0.6-3.1s0.9-1.8,1.6-2.5c0.7-0.7,1.5-1.2,2.4-1.6
				c0.9-0.4,2-0.6,3.1-0.6c0.8,0,1.5,0.1,2.2,0.3c0.7,0.2,1.3,0.4,1.9,0.8s1.1,0.7,1.5,1.2c0.5,0.5,0.8,1,1.1,1.6
				c0.3,0.6,0.6,1.2,0.7,1.9C311.3,33.6,311.4,34.3,311.4,35z M308.5,35c0-0.8-0.1-1.6-0.3-2.2c-0.2-0.7-0.5-1.2-1-1.7
				s-0.9-0.8-1.5-1.1s-1.3-0.4-2-0.4s-1.4,0.1-2,0.4c-0.6,0.2-1.1,0.6-1.5,1.1s-0.7,1-1,1.7c-0.2,0.7-0.3,1.4-0.3,2.2
				s0.1,1.6,0.3,2.2c0.2,0.7,0.5,1.2,1,1.7c0.4,0.5,0.9,0.8,1.5,1.1c0.6,0.2,1.3,0.4,2,0.4s1.4-0.1,2-0.4s1.1-0.6,1.5-1.1
				c0.4-0.5,0.7-1,1-1.7C308.4,36.6,308.5,35.9,308.5,35z"/>
		</g>
		<g class="st1">
			<path d="M315.8,29.7v4.5h5.7v2.3h-5.7v6.2H313V27.5h9.6v2.2H315.8z"/>
		</g>
		<g class="st1">
		</g>
		<g class="st1">
			<path d="M339.6,29.8H335v12.9h-2.8V29.8h-4.6v-2.3h12V29.8z"/>
		</g>
		<g class="st1">
			<path d="M353,42.6h-2.2c-0.2,0-0.4-0.1-0.6-0.2c-0.2-0.1-0.3-0.3-0.3-0.5l-1.1-3.1h-6.3l-1.1,3.1c-0.1,0.2-0.2,0.3-0.3,0.4
				s-0.4,0.2-0.6,0.2h-2.2l6-15.2h2.9L353,42.6z M348,36.9l-1.8-5c-0.1-0.2-0.2-0.5-0.3-0.8c-0.1-0.3-0.2-0.6-0.3-1
				c-0.1,0.4-0.2,0.7-0.3,1c-0.1,0.3-0.2,0.6-0.3,0.8l-1.8,5H348z"/>
		</g>
		<g class="st1">
			<path d="M364.4,39.1c0.2,0,0.3,0.1,0.4,0.2l1.1,1.2c-0.6,0.8-1.4,1.3-2.3,1.8c-0.9,0.4-2,0.6-3.2,0.6c-1.1,0-2.1-0.2-3-0.6
				c-0.9-0.4-1.7-0.9-2.3-1.6c-0.6-0.7-1.1-1.5-1.5-2.5c-0.3-1-0.5-2-0.5-3.1c0-1.1,0.2-2.2,0.5-3.1s0.9-1.8,1.5-2.5
				c0.7-0.7,1.5-1.2,2.4-1.6c0.9-0.4,1.9-0.6,3-0.6c1.1,0,2.1,0.2,2.9,0.5c0.9,0.4,1.6,0.8,2.2,1.4l-0.9,1.3
				c-0.1,0.1-0.1,0.2-0.2,0.2c-0.1,0.1-0.2,0.1-0.4,0.1c-0.1,0-0.2,0-0.3-0.1c-0.1-0.1-0.2-0.1-0.4-0.2c-0.1-0.1-0.3-0.2-0.5-0.3
				c-0.2-0.1-0.4-0.2-0.6-0.3c-0.2-0.1-0.5-0.2-0.8-0.2s-0.7-0.1-1.1-0.1c-0.7,0-1.3,0.1-1.9,0.4c-0.6,0.2-1,0.6-1.5,1
				c-0.4,0.5-0.7,1-0.9,1.7c-0.2,0.7-0.3,1.4-0.3,2.3c0,0.9,0.1,1.6,0.4,2.3c0.2,0.7,0.6,1.2,1,1.7s0.9,0.8,1.5,1
				c0.6,0.2,1.2,0.4,1.8,0.4c0.4,0,0.7,0,1-0.1s0.6-0.1,0.9-0.2c0.3-0.1,0.5-0.2,0.7-0.4s0.5-0.3,0.7-0.5c0.1-0.1,0.1-0.1,0.2-0.2
				C364.3,39.1,364.3,39.1,364.4,39.1z"/>
		</g>
		<g class="st1">
			<path d="M382.1,35c0,1.1-0.2,2.1-0.6,3.1c-0.4,0.9-0.9,1.8-1.6,2.5s-1.5,1.2-2.4,1.6s-2,0.6-3.2,0.6c-1.1,0-2.2-0.2-3.1-0.6
				c-0.9-0.4-1.8-0.9-2.4-1.6c-0.7-0.7-1.2-1.5-1.6-2.5s-0.6-2-0.6-3.1c0-1.1,0.2-2.1,0.6-3.1s0.9-1.8,1.6-2.5
				c0.7-0.7,1.5-1.2,2.4-1.6c0.9-0.4,2-0.6,3.1-0.6c0.8,0,1.5,0.1,2.2,0.3s1.3,0.4,1.9,0.8c0.6,0.3,1.1,0.7,1.5,1.2
				c0.5,0.5,0.8,1,1.2,1.6c0.3,0.6,0.6,1.2,0.7,1.9C382,33.6,382.1,34.3,382.1,35z M379.2,35c0-0.8-0.1-1.6-0.3-2.2
				c-0.2-0.7-0.5-1.2-1-1.7c-0.4-0.5-0.9-0.8-1.5-1.1c-0.6-0.2-1.3-0.4-2-0.4c-0.7,0-1.4,0.1-2,0.4s-1.1,0.6-1.5,1.1
				c-0.4,0.5-0.7,1-1,1.7c-0.2,0.7-0.3,1.4-0.3,2.2s0.1,1.6,0.3,2.2c0.2,0.7,0.5,1.2,1,1.7c0.4,0.5,0.9,0.8,1.5,1.1s1.3,0.4,2,0.4
				c0.7,0,1.4-0.1,2-0.4c0.6-0.2,1.1-0.6,1.5-1.1c0.4-0.5,0.7-1,1-1.7C379.1,36.6,379.2,35.9,379.2,35z"/>
			<path d="M401.1,27.5v15.2h-2.5v-9.8c0-0.4,0-0.8,0.1-1.3l-4.6,8.6c-0.2,0.4-0.5,0.6-1,0.6h-0.4c-0.4,0-0.8-0.2-1-0.6l-4.6-8.7
				c0,0.2,0,0.5,0.1,0.7c0,0.2,0,0.4,0,0.6v9.8h-2.5V27.5h2.1c0.1,0,0.2,0,0.3,0c0.1,0,0.2,0,0.2,0.1c0.1,0,0.1,0.1,0.2,0.1
				c0.1,0.1,0.1,0.1,0.2,0.3l4.5,8.4c0.1,0.2,0.2,0.5,0.3,0.7c0.1,0.2,0.2,0.5,0.3,0.7c0.1-0.3,0.2-0.5,0.3-0.8
				c0.1-0.2,0.2-0.5,0.3-0.7l4.5-8.4c0.1-0.1,0.1-0.2,0.2-0.3c0.1-0.1,0.1-0.1,0.2-0.1c0.1,0,0.2,0,0.2-0.1c0.1,0,0.2,0,0.3,0H401.1
				z"/>
		</g>
		<g class="st1">
			<path d="M417.2,42.6H415c-0.2,0-0.4-0.1-0.6-0.2s-0.3-0.3-0.3-0.5l-1.1-3.1h-6.3l-1.1,3.1c-0.1,0.2-0.2,0.3-0.3,0.4
				s-0.4,0.2-0.6,0.2h-2.2l6-15.2h2.9L417.2,42.6z M412.2,36.9l-1.8-5c-0.1-0.2-0.2-0.5-0.3-0.8c-0.1-0.3-0.2-0.6-0.3-1
				c-0.1,0.4-0.2,0.7-0.3,1s-0.2,0.6-0.3,0.8l-1.8,5H412.2z"/>
		</g>
	</g>
</g>
</svg>
